# xmcd CD database file
#
# Track frame offsets:
#	150
#	18566
#	33459
#	48338
#	64121
#	77873
#	91834
#	104085
#	122328
#	136815
#	151183
#	160659
#
# Disc length: 2295 seconds
#
# Revision: 0
# Processed by: cddbd v1.5.2PL0 Copyright (c) Steve Scherf et al.
# Submitted via: CDex 1.51
#
DISCID=8f08f50c
DTITLE=CS Eubank - Please Don't Try
DYEAR=2004
DGENRE=Country
TTITLE0=Please Don't Try
TTITLE1=I Know What Blues Can Do
TTITLE2=One Heart
TTITLE3=Gonna Get to The Bottom of This
TTITLE4=The Strongest Man Alive
TTITLE5=You Can Kiss This. . . Goodbye
TTITLE6=I Wanna See You Smile
TTITLE7=I Can't Get Over It
TTITLE8=I Was Never There
TTITLE9=A Horse Called Music
TTITLE10=Let Me Sleep on the Floor
TTITLE11=It Must Be Love
EXTD=YEAR: 2004
EXTT0=
EXTT1=
EXTT2=
EXTT3=
EXTT4=
EXTT5=
EXTT6=
EXTT7=
EXTT8=
EXTT9=
EXTT10=
EXTT11=
PLAYORDER=
